<?xml version="1.0" encoding="iso-8859-1"?>
<!-- Uploaded to: SVG Repo, www.svgrepo.com, Generator: SVG Repo Mixer Tools -->
<svg fill="#000000" height="800px" width="800px" version="1.1" id="Layer_1" xmlns="http://www.w3.org/2000/svg" xmlns:xlink="http://www.w3.org/1999/xlink" 
	 viewBox="0 0 512 512" xml:space="preserve">
<g>
	<g>
		<path d="M486.4,210.506l-25.6,17.002L270.164,354.125c-4.291,2.85-9.226,4.275-14.164,4.275c-4.937,0-9.873-1.425-14.164-4.275
			L51.2,227.511l-25.6-17.003L0,193.504V486.4C0,500.538,11.464,512,25.6,512h460.8c14.14,0,25.6-11.462,25.6-25.6V193.502
			L486.4,210.506z"/>
	</g>
</g>
<g>
	<g>
		<path d="M270.2,4.299c-8.596-5.733-19.799-5.733-28.401,0L25.141,148.738l23.12,15.355L71.38,179.45L256,302.068l184.62-122.621
			l23.12-15.355l23.117-15.357L270.2,4.299z"/>
	</g>
</g>
</svg>