<?xml version="1.0" encoding="utf-8"?>

<!-- Uploaded to: SVG Repo, www.svgrepo.com, Generator: SVG Repo Mixer Tools -->
<svg height="800px" width="800px" version="1.1" id="Icons" xmlns="http://www.w3.org/2000/svg" xmlns:xlink="http://www.w3.org/1999/xlink" 
	 viewBox="0 0 32 32" xml:space="preserve">
<style type="text/css">
	.st0{fill:#FFFFFF;}
</style>
<g>
	<path d="M31,25H10.5C8,25,6,23,6,20.5S8,16,10.5,16H31c0.6,0,1,0.4,1,1s-0.4,1-1,1H10.5C9.1,18,8,19.1,8,20.5S9.1,23,10.5,23H31
		c0.6,0,1,0.4,1,1S31.6,25,31,25z"/>
</g>
<g>
	<path d="M30,25c-0.3,0-0.7-0.2-0.9-0.5c-1.4-2.5-1.4-5.5,0-8c0.3-0.5,0.9-0.6,1.4-0.4c0.5,0.3,0.6,0.9,0.4,1.4
		c-1.1,1.9-1.1,4.1,0,6c0.3,0.5,0.1,1.1-0.4,1.4C30.3,25,30.2,25,30,25z"/>
</g>
<g>
	<path d="M25,32H4.5C2,32,0,30,0,27.5S2,23,4.5,23H25c0.6,0,1,0.4,1,1s-0.4,1-1,1H4.5C3.1,25,2,26.1,2,27.5S3.1,30,4.5,30H25
		c0.6,0,1,0.4,1,1S25.6,32,25,32z"/>
</g>
<g>
	<path d="M24,32c-0.3,0-0.7-0.2-0.9-0.5c-1.4-2.5-1.4-5.5,0-8c0.3-0.5,0.9-0.6,1.4-0.4c0.5,0.3,0.6,0.9,0.4,1.4
		c-1.1,1.9-1.1,4.1,0,6c0.3,0.5,0.1,1.1-0.4,1.4C24.3,32,24.2,32,24,32z"/>
</g>
<g>
	<path d="M16.9,5c-0.6,0-1-0.4-1-1c0-0.7-0.6-1.5-1.5-2l-0.2-0.1c-0.5-0.3-0.7-0.9-0.4-1.3c0.3-0.5,0.9-0.7,1.3-0.4l0.2,0.1
		c1.6,0.9,2.6,2.3,2.6,3.8C17.9,4.6,17.5,5,16.9,5z"/>
</g>
<path d="M21.5,3.1L21.5,3.1c-1.2-0.2-2.4,0.1-3.4,0.7c-0.3,0.2-0.8,0.2-1.1,0c-0.3-0.2-0.7-0.4-1.1-0.5c0,0.2,0.1,0.5,0.1,0.7
	c0,0.6-0.4,1-1,1s-1-0.4-1-1c0-0.3-0.1-0.6-0.3-0.9c0,0-0.1,0-0.1,0c-2.9,0.5-4.9,3.5-4.5,6.7c0.3,2.3,1.9,5.8,3.9,7.3
	c0.7,0.5,1.4,0.8,2,0.8c0.1,0,0.3,0,0.4,0c0.5-0.1,0.9-0.3,1.3-0.6c0.4-0.3,1.1-0.3,1.5,0c0.4,0.3,0.9,0.5,1.3,0.6
	c0.8,0.1,1.6-0.1,2.5-0.7c2-1.5,3.6-5,3.9-7.3C26.3,6.6,24.3,3.5,21.5,3.1z"/>
</svg>