<?xml version="1.0" encoding="utf-8"?><!-- Uploaded to: SVG Repo, www.svgrepo.com, Generator: SVG Repo Mixer Tools -->
<svg version="1.1" id="Uploaded to svgrepo.com" xmlns="http://www.w3.org/2000/svg" xmlns:xlink="http://www.w3.org/1999/xlink" 
	 width="800px" height="800px" viewBox="0 0 32 32" xml:space="preserve">
<style type="text/css">
	.sharpcorners_een{fill:#111918;}
	.st0{fill:#0B1719;}
</style>
<path class="sharpcorners_een" d="M8,19h3v2H8v3H6v-3H3v-2h3v-3h2V19z M21.5,21c-0.828,0-1.5,0.672-1.5,1.5s0.672,1.5,1.5,1.5
	s1.5-0.672,1.5-1.5S22.328,21,21.5,21z M32,12v16H0V12h13v-1h6v1H32z M12,18H9v-3H5v3H2v4h3v3h4v-3h3V18z M24,22.5
	c0-1.381-1.119-2.5-2.5-2.5S19,21.119,19,22.5c0,1.381,1.119,2.5,2.5,2.5S24,23.881,24,22.5z M30,22.5c0-1.381-1.119-2.5-2.5-2.5
	S25,21.119,25,22.5c0,1.381,1.119,2.5,2.5,2.5S30,23.881,30,22.5z M27.5,21c-0.828,0-1.5,0.672-1.5,1.5s0.672,1.5,1.5,1.5
	s1.5-0.672,1.5-1.5S28.328,21,27.5,21z M17,4h-2v6h2V4z"/>
</svg>