<?xml version="1.0" encoding="utf-8"?><!-- Uploaded to: SVG Repo, www.svgrepo.com, Generator: SVG Repo Mixer Tools -->
<svg version="1.1" id="Uploaded to svgrepo.com" xmlns="http://www.w3.org/2000/svg" xmlns:xlink="http://www.w3.org/1999/xlink" 
	 width="800px" height="800px" viewBox="0 0 32 32" xml:space="preserve">
<style type="text/css">
	.sharpcorners_een{fill:#111918;}
	.st0{fill:#0B1719;}
</style>
<path class="sharpcorners_een" d="M14,7.716v16.627c0,1.061-0.421,2.078-1.172,2.828l-3.58,3.579c-0.55,0.55-1.489,0.29-1.677-0.465
	l-2.142-8.57c-0.273-1.093-0.073-2.251,0.552-3.189L7,17l-0.917-0.306c-1.297-0.433-2.284-1.498-2.616-2.825L1.365,5.46
	C1.192,4.766,1.781,4.12,2.487,4.229l9.817,1.51C13.28,5.889,14,6.729,14,7.716z M29.513,4.229l-9.817,1.51
	C18.72,5.889,18,6.729,18,7.716v16.627c0,1.061,0.421,2.078,1.172,2.828l3.58,3.579c0.55,0.55,1.489,0.29,1.677-0.465l2.142-8.57
	c0.273-1.093,0.073-2.251-0.552-3.189L25,17l0.917-0.306c1.297-0.433,2.284-1.498,2.616-2.825l2.102-8.41
	C30.808,4.766,30.219,4.12,29.513,4.229z M20.5,3H21V2h-0.5c-2.31,0-4.197,1.756-4.449,4h-0.101C15.697,3.756,13.81,2,11.5,2H11v1
	h0.5C13.43,3,15,4.57,15,6.5V26h2V6.5C17,4.57,18.57,3,20.5,3z"/>
</svg>